<svg width="68" height="68" viewBox="0 0 68 68" fill="none" xmlns="http://www.w3.org/2000/svg">
<path d="M67.9066 33.9284C67.8352 15.1747 52.6098 0 33.8818 0C15.1539 0 0 15.3179 0 34.0716C0 52.8253 15.2969 68.0716 34.0248 68C38.814 68 43.3173 66.9979 47.4632 65.2084C47.6061 65.2084 47.6776 65.2084 47.7491 65.2084V65.0653C59.6149 59.7684 67.9066 47.8147 67.9066 34V33.9284ZM34.0248 64.7789C31.8089 64.7789 29.736 64.5642 27.663 64.1347C28.8782 63.4905 30.0219 62.7032 31.0226 61.7011C32.4522 60.1979 33.453 58.5516 34.0963 56.9768C34.7396 58.4084 35.6689 59.84 36.884 61.1284C38.0992 62.3453 39.5288 63.2758 41.1729 63.9916C38.8855 64.5642 36.5266 64.8505 34.0963 64.8505L34.0248 64.7789ZM42.7454 43.8779C39.2429 44.0211 37.0985 44.9516 35.7403 46.0253C36.5266 43.5916 38.5281 40.5137 43.4602 40.5137H51.3231C50.6798 42.9474 48.4639 47.6716 41.6017 47.6716H36.7411C37.7418 46.8126 39.5288 45.8821 42.8169 45.7389C43.3173 45.7389 43.7462 45.3095 43.7462 44.7368C43.7462 44.2358 43.2458 43.8063 42.7454 43.8063V43.8779ZM33.8818 19.1832C33.453 18.6105 33.167 17.8947 33.167 17.1074C33.167 16.32 33.453 15.6042 33.8818 15.0316C34.3107 15.6042 34.5966 16.32 34.5966 17.1074C34.5966 17.8947 34.3107 18.6105 33.8818 19.1832ZM25.2327 35.6463C27.8775 35.7179 29.5215 36.3621 30.5937 37.0779H24.3749C18.299 37.0779 16.7265 32.4253 16.2976 29.9916H22.5164C28.0204 29.9916 30.5222 33.0695 31.6659 35.5032C30.3078 34.5726 28.3063 33.8568 25.2327 33.7137C24.7323 33.7137 24.2319 34.0716 24.2319 34.6442C24.2319 35.1453 24.6608 35.6463 25.1612 35.6463H25.2327ZM46.3195 62.1305C43.2458 61.9158 40.744 60.8421 38.957 58.9811C36.0263 56.0463 35.5259 51.8232 35.3829 50.32H41.6017C50.7513 50.32 53.8964 43.0905 54.2538 39.2968L54.3968 37.8653H43.4602C39.6718 37.8653 37.0985 39.2968 35.3829 41.3011V32.7116H40.5295C46.4624 32.7116 48.4639 28.0589 48.6783 25.5537L48.8213 24.1221H41.6017C38.1707 24.1221 36.3122 25.9116 35.3115 27.9158V21.3305C36.3837 20.2568 37.027 18.7537 37.027 17.1789C37.027 15.2463 36.0977 13.4568 34.5252 12.3832L33.8104 11.8821L33.0955 12.3832C31.523 13.4568 30.5937 15.3179 30.5937 17.1789C30.5937 18.7537 31.2371 20.2568 32.3093 21.3305V31.7095C30.3793 29.3474 27.2341 27.4147 22.4449 27.4147H13.3669V28.7747C13.3669 32.5684 15.7257 39.7979 24.2319 39.7979H32.2378V50.4632C32.2378 50.4632 32.2378 56.0463 28.6637 59.6253C27.0912 61.2 25.0182 62.2021 22.5164 62.6316C11.151 58.1221 3.07367 47.0274 3.00219 34C3.00219 17.0358 16.7265 3.14947 33.7389 3.14947C50.6798 3.14947 64.547 16.8926 64.547 33.9284C64.547 46.5263 56.9701 57.4063 46.1765 62.1305H46.3195ZM37.3844 29.9916C37.7418 28.6316 38.7425 26.6989 41.6017 26.6989H45.6047C45.0328 28.1305 43.6747 29.9916 40.4581 29.9916H37.3129H37.3844Z" fill="#8A50A0"/>
</svg>
